PathFileType	4	(X/Y/Z)	/Users/visionmauri/Downloads/Videos/OAW13-top_Sports2D/OAW13-top_Sports2D_px_person00.trc
DataRate	CameraRate	NumFrames	NumMarkers	Units	OrigDataRate	OrigDataStartFrame	OrigNumFrames
27.0	27.0	4	22	m	27.0	1235	1977
Frame#	Time	Hip			RHip			RKnee			RAnkle			RBigToe			RSmallToe			RHeel			LHip			LKnee			LAnkle			LBigToe			LSmallToe			LHeel			Neck			Head			Nose			RShoulder			RElbow			RWrist			LShoulder			LElbow			LWrist			
		X1	Y1	Z1	X2	Y2	Z2	X3	Y3	Z3	X4	Y4	Z4	X5	Y5	Z5	X6	Y6	Z6	X7	Y7	Z7	X8	Y8	Z8	X9	Y9	Z9	X10	Y10	Z10	X11	Y11	Z11	X12	Y12	Z12	X13	Y13	Z13	X14	Y14	Z14	X15	Y15	Z15	X16	Y16	Z16	X17	Y17	Z17	X18	Y18	Z18	X19	Y19	Z19	X20	Y20	Z20	X21	Y21	Z21	X22	Y22	Z22
1235	45.76388888888889	528.0794177647091	744.3431834239301	0.0	544.7041364264244	748.2783295901514	0.0	547.8913045081697	808.4486821002617	0.0	545.703067650155	868.5247719292134	0.0	551.008749579468	873.3696445165078	0.0	557.9665789482193	876.5356569514279	0.0	542.5684850056628	879.7719519633788	0.0	513.3272559312951	747.2719177737904	0.0	513.5864392096357	808.9724796472772	0.0	515.5345691892699	869.8850462256263	0.0	522.6436336865257	878.5129812143649	0.0	510.163911237065	880.8976613772068	0.0	516.0362525817208	882.0872342806023	0.0	530.6825691831135	656.8676595698151	0.0	532.5328934435756	622.9746247391711	0.0	534.1156566828195	650.5520727533677	0.0	558.5268246461852	667.8006240256026	0.0	570.7969253570881	713.918608262978	0.0	572.1832949876267	754.8619896327815	0.0	503.9947454150802	668.1706525133884	0.0	492.6172879599154	713.8046202337036	0.0	491.2496440243244	752.9552796134943	0.0
1236	45.80094466936573	529.2663258065435	744.1978736504212	0.0	545.4358104646572	747.9863556006264	0.0	548.6800483797722	807.9541423988139	0.0	546.8058272387241	868.6576403440447	0.0	551.8078242247888	872.7543408155346	0.0	559.0451780143005	875.996382945224	0.0	543.8476033907052	879.3808551929983	0.0	514.5917206108119	746.8102479608389	0.0	513.7695769700144	808.3057394683633	0.0	515.3287571692109	869.2767988116136	0.0	522.7451025232997	878.3261918598158	0.0	510.53136153758857	880.8046249025882	0.0	516.3100745980535	880.8162699799908	0.0	532.1181120160606	657.7980366699927	0.0	533.7465141325532	623.3946462939467	0.0	534.961290100772	651.511407388306	0.0	559.5057560221879	667.6409700409333	0.0	571.6953355191131	714.0410570472753	0.0	572.4234986068835	754.7414024566289	0.0	505.0505589942331	668.0583570313286	0.0	494.5188367811335	713.7544852625683	0.0	493.9876257128468	752.3967723441571	0.0
1237	45.83800044984256	530.6713348110198	743.927754369823	0.0	546.0273935140218	747.6913100508792	0.0	549.445122524771	807.3156862381446	0.0	547.5936643081584	868.7460183486104	0.0	551.5142109376933	872.5103519703864	0.0	559.1504595031911	875.7040910741323	0.0	544.7788490713598	878.9757678635885	0.0	515.6982047139156	746.6933635818068	0.0	514.1763529677111	806.7473553158001	0.0	515.2497600548257	868.1479460484381	0.0	522.92231165726	877.9346163116744	0.0	511.0488290763703	880.3860704119714	0.0	516.5881963822393	879.433533654699	0.0	533.125913925602	658.7854676543574	0.0	534.6200122806575	624.5207654869405	0.0	536.0373739397087	652.3047931975653	0.0	560.3541358290258	667.5777110221076	0.0	572.2890897548169	714.0664973015986	0.0	572.6772076896327	754.4739950816335	0.0	506.1580636309247	667.8686498837286	0.0	496.1525484522894	713.6481654727551	0.0	496.48354079399456	751.4246062904268	0.0
1238	45.875056230319395	531.7182403532221	743.6707015672041	0.0	546.6151061857887	747.5279811149128	0.0	550.0954012598149	806.9547445187712	0.0	548.0088012306802	868.5071265225835	0.0	550.9003623696246	872.3814901836938	0.0	558.7356193647867	875.5033857621678	0.0	545.107775307955	878.7923686222596	0.0	516.3643956286905	746.7459961342053	0.0	514.7273504848188	805.5548995885775	0.0	515.3244556573745	867.3416025362865	0.0	522.8698180781412	877.7024407809625	0.0	511.21983914568295	880.1428851676549	0.0	516.6666539843301	878.681083897028	0.0	533.7797715953116	658.5504477062441	0.0	535.5673979097465	624.9160246864591	0.0	537.292073719769	652.7835449955619	0.0	561.0121635688031	667.5878525740549	0.0	572.714752514457	713.8719493951368	0.0	572.6604712034457	754.2232425017513	0.0	507.369179902602	667.3016545024097	0.0	497.5987367362898	713.5534701264888	0.0	499.0553387036302	750.1582462628063	0.0
